# xmcd
#
# Track frame offsets:
#	150
#	14685
#	33725
#	44889
#
# Disc length: 775 seconds
#
# Revision: 1
# Processed by: cddbd v1.5.1PL0 Copyright (c) Steve Scherf et al.
# Submitted via: EasyCDDAExtractor 7.0.6.1
#
DISCID=38030504
DTITLE=Gail Sweeny - Gail Sweeny I Love A Rainy Night
DYEAR=1900
DGENRE=Country
TTITLE0=I Love A Rainy Night
TTITLE1=Autumn Nights
TTITLE2=Boppin The Blues
TTITLE3=Walking After Midnight
EXTD=
EXTT0=
EXTT1=
EXTT2=
EXTT3=
PLAYORDER=
